# xmcd
#
# Track frame offsets:
#	180
#	14077
#	22156
#	29888
#	45275
#	58152
#	71276
#	86345
#	100518
#	111090
#	118760
#	130518
#	145196
#	156313
#	165395
#	179562
#
# Disc length: 2513 seconds
#
# Revision: 2
# Processed by: cddbd v1.4PL0 Copyright (c) Steve Scherf et al.
# Submitted via: MusicManager 7.0.3.0 
#
DISCID=d609cf10
DTITLE=Holiday, Billie  - Greatest Hits Vol. 1
DYEAR=1994
DGENRE=Blues
TTITLE0=God Bless The Child
TTITLE1=Miss Brown To You (version 1)
TTITLE2=Why Not Take All Of Me
TTITLE3=Strange Fruit
TTITLE4=My Man (version 1)
TTITLE5=Billie's Blues
TTITLE6=Lover Come Back To Me
TTITLE7=Everything A Good Man Needs
TTITLE8=Ain't Nobody's Bussiness
TTITLE9=Them There Eyes
TTITLE10=Nice Work If You Can Get It
TTITLE11=Don't Be Late
TTITLE12=What A Little Moonlight Can Do
TTITLE13=When Your Lover Has Gone
TTITLE14=Just Friends
TTITLE15=I'm Restless
EXTD=
EXTT0=
EXTT1=
EXTT2=
EXTT3=
EXTT4=
EXTT5=
EXTT6=
EXTT7=
EXTT8=
EXTT9=
EXTT10=
EXTT11=
EXTT12=
EXTT13=
EXTT14=
EXTT15=
PLAYORDER=
